<svg xmlns="http://www.w3.org/2000/svg" viewBox="0 0 177 66.29"><style>  .a{fill:#4C4F4C;}.b{fill:#D1D666;}</style><path d="M24.18 49.41c-0.68-0.72-1.49-1.28-2.44-1.7-0.94-0.41-2.04-0.62-3.28-0.62-1.28 0-2.44 0.24-3.46 0.71-1.02 0.47-1.88 1.11-2.59 1.9-0.71 0.79-1.25 1.71-1.63 2.76-0.38 1.05-0.57 2.15-0.57 3.3 0 1.15 0.19 2.25 0.57 3.3 0.38 1.05 0.92 1.97 1.63 2.76 0.71 0.79 1.57 1.43 2.59 1.9 1.02 0.47 2.17 0.71 3.46 0.71 1.04 0 2.03-0.13 2.99-0.38 0.95-0.25 1.81-0.6 2.56-1.03v-6.71h-4.79v-1.87h6.83v9.83c-1.13 0.66-2.37 1.17-3.72 1.52-1.35 0.35-2.64 0.53-3.86 0.53-1.49 0-2.87-0.26-4.15-0.79-1.27-0.53-2.38-1.26-3.31-2.19-0.93-0.94-1.67-2.04-2.2-3.33-0.53-1.28-0.79-2.69-0.79-4.22 0-1.53 0.26-2.94 0.79-4.22 0.53-1.28 1.26-2.39 2.2-3.33 0.93-0.93 2.04-1.67 3.31-2.19 1.27-0.53 2.66-0.79 4.15-0.79 1.6 0 2.99 0.22 4.15 0.67 1.16 0.44 2.19 1.12 3.1 2.03L24.18 49.41z" class="a"/><path d="M34.86 65.78h-2.04V45.72h6.17c2.04 0 3.65 0.44 4.83 1.33 1.18 0.89 1.77 2.23 1.77 4.02 0 1.4-0.44 2.57-1.32 3.53-0.88 0.95-2.15 1.51-3.81 1.66l5.78 9.52h-2.49l-5.49-9.32h-3.4V65.78zM34.86 54.59h3.63c0.91 0 1.68-0.09 2.31-0.28 0.63-0.19 1.14-0.44 1.52-0.75 0.38-0.31 0.65-0.68 0.82-1.1 0.17-0.42 0.26-0.88 0.26-1.37 0-0.47-0.08-0.92-0.25-1.34-0.17-0.42-0.44-0.8-0.82-1.12-0.38-0.32-0.88-0.57-1.51-0.75-0.63-0.18-1.4-0.27-2.31-0.27h-3.62V54.59z" class="a"/><path d="M53.07 63.91h10.74v1.87H51.03V45.72H63.46v1.87H53.07v6.83h9.72v1.87h-9.71V63.91z" class="a"/><path d="M71.28 63.91H82.01v1.87H69.24V45.72h12.43v1.87H71.28v6.83h9.72v1.87h-9.71V63.91z" class="a"/><path d="M101.95 62.72h0.06V45.72h2.04v20.05h-2.55L89.54 48.61h-0.06v17.16h-2.04V45.72h2.55L101.95 62.72z" class="a"/><path d="M120.19 45.72h5.98c0.83 0 1.63 0.09 2.41 0.26 0.77 0.17 1.46 0.45 2.07 0.85 0.61 0.4 1.09 0.92 1.44 1.56 0.36 0.64 0.54 1.44 0.54 2.38 0 1.1-0.31 2.04-0.92 2.82-0.61 0.79-1.49 1.31-2.62 1.57v0.06c1.42 0.11 2.53 0.61 3.33 1.49 0.8 0.88 1.2 2.05 1.2 3.53 0 0.32-0.08 0.79-0.24 1.42-0.16 0.62-0.49 1.24-1 1.86-0.51 0.61-1.25 1.15-2.21 1.6-0.96 0.45-2.25 0.68-3.85 0.68h-6.12V45.72zM122.23 54.5h4.11c0.49 0 0.98-0.06 1.46-0.18 0.48-0.12 0.92-0.33 1.3-0.61 0.39-0.28 0.7-0.64 0.95-1.09 0.24-0.44 0.37-0.99 0.37-1.63 0-0.21-0.04-0.5-0.12-0.88-0.08-0.38-0.27-0.75-0.57-1.13-0.29-0.38-0.72-0.7-1.29-0.98-0.57-0.27-1.33-0.41-2.29-0.41h-3.91V54.5zM122.23 63.91h3.91c0.74 0 1.43-0.07 2.07-0.23 0.64-0.15 1.2-0.38 1.67-0.69 0.47-0.31 0.84-0.7 1.12-1.17 0.27-0.47 0.41-1.04 0.41-1.7 0-1.32-0.42-2.3-1.27-2.95-0.85-0.64-2.1-0.96-3.74-0.96h-4.16V63.91z" class="a"/><path d="M139.11 65.78h-2.38l8.72-20.05h1.98l8.72 20.05h-2.38l-2.21-5.27h-10.25L139.11 65.78zM142.08 58.64h8.7l-4.33-10.54L142.08 58.64z" class="a"/><path d="M175.1 49.41c-0.68-0.72-1.49-1.28-2.43-1.7-0.95-0.41-2.04-0.62-3.29-0.62-1.29 0-2.44 0.24-3.46 0.71-1.02 0.47-1.88 1.11-2.59 1.9-0.71 0.79-1.25 1.71-1.63 2.76-0.38 1.05-0.57 2.15-0.57 3.3 0 1.15 0.19 2.25 0.57 3.3 0.38 1.05 0.92 1.97 1.63 2.76 0.71 0.79 1.57 1.43 2.59 1.9 1.02 0.47 2.17 0.71 3.46 0.71 1.04 0 2.03-0.13 2.99-0.38 0.95-0.25 1.81-0.6 2.56-1.03v-6.71h-4.79v-1.87h6.83v9.83c-1.13 0.66-2.38 1.17-3.73 1.52-1.35 0.35-2.64 0.53-3.86 0.53-1.49 0-2.87-0.26-4.15-0.79-1.28-0.53-2.38-1.26-3.31-2.19-0.94-0.94-1.67-2.04-2.2-3.33-0.53-1.28-0.79-2.69-0.79-4.22 0-1.53 0.27-2.94 0.79-4.22 0.53-1.28 1.26-2.39 2.2-3.33 0.93-0.93 2.04-1.67 3.31-2.19 1.27-0.53 2.66-0.79 4.15-0.79 1.61 0 2.99 0.22 4.15 0.67 1.16 0.44 2.19 1.12 3.1 2.03L175.1 49.41z" class="a"/><path d="M56.83 34.37h-1.47V21.24h-4.85v-1.35h11.17v1.35h-4.85V34.37z" class="a"/><path d="M66.34 19.89h1.47v6.28h7.9v-6.28h1.47v14.49H75.71v-6.85h-7.9v6.86H66.34V19.89z" class="a"/><path d="M85 33.02h7.76v1.35h-9.23V19.89h8.98v1.35H85v4.93h7.02v1.35H85V33.02z" class="a"/><path d="M107.65 33.02h6.75v1.35h-8.22V19.89h1.47V33.02z" class="a"/><path d="M120.29 34.37h-1.47V19.89h1.47V34.37z" class="a"/><path d="M131.28 34.37h-1.47V21.24h-4.85v-1.35h11.17v1.35h-4.85V34.37z" class="a"/><path d="M145.44 34.37h-1.47V21.24h-4.85v-1.35h11.17v1.35h-4.85V34.37z" class="a"/><path d="M156.43 33.02h6.75v1.35h-8.22V19.89h1.47V33.02z" class="a"/><path d="M169.07 33.02h7.76v1.35h-9.23V19.89h8.98v1.35h-7.51v4.93h7.02v1.35h-7.02V33.02z" class="a"/><rect x="8.01" y="39.7" width="168.99" height="1.21" class="b"/><path d="M34.44 9.75c-1.48-5.17-5.96-8.94-11.24-8.94-5.28 0-9.76 3.77-11.24 8.94h2.09c1.38-4.05 4.96-6.94 9.15-6.94 4.19 0 7.77 2.89 9.15 6.95H34.44z" class="b"/><polygon points="1.25 13.83 8.04 28.29 8.04 12.63 " class="b"/><path d="M8.92 26.87c1.47 0 6.87 0 12.61 0 0.14-1.15 0.85-2 1.75-2s1.61 0.85 1.75 2c1.48 0 2.93 0 4.3 0l8.16 0v-16.24L8.92 10.63V26.87z" class="b"/><polygon points="45.16 13.82 38.37 12.62 38.37 28.3 " class="b"/><path d="M24.26 26.39c0 0 0 0 0 0-0.01-0.02-0.02-0.04-0.02-0.06 0 0 0 0 0 0-0.04-0.1-0.09-0.19-0.14-0.28 0 0 0-0.01-0.01-0.01-0.01-0.01-0.02-0.03-0.03-0.04 0 0-0.01-0.01-0.01-0.01-0.01-0.01-0.02-0.02-0.03-0.04 0 0-0.01-0.01-0.01-0.01-0.01-0.01-0.02-0.02-0.03-0.04 0 0-0.01-0.01-0.01-0.01-0.01-0.01-0.02-0.02-0.03-0.03 0 0 0 0 0 0-0.02-0.02-0.04-0.05-0.06-0.07 0 0-0.01-0.01-0.02-0.02-0.01-0.01-0.02-0.01-0.02-0.02-0.01-0.01-0.01-0.01-0.02-0.02-0.01-0.01-0.02-0.01-0.02-0.02-0.01-0.01-0.01-0.01-0.02-0.02-0.01-0.01-0.01-0.01-0.02-0.02-0.01-0.01-0.02-0.01-0.02-0.02-0.01 0-0.01-0.01-0.02-0.01-0.01-0.01-0.02-0.01-0.03-0.02-0.01 0-0.01-0.01-0.02-0.01-0.01-0.01-0.03-0.02-0.04-0.02 0 0-0.01 0-0.01-0.01-0.01-0.01-0.03-0.01-0.04-0.02-0.01 0-0.01 0-0.02-0.01-0.01 0-0.02-0.01-0.03-0.01-0.01 0-0.01 0-0.02-0.01-0.01 0-0.02-0.01-0.03-0.01-0.01 0-0.01 0-0.02 0-0.01 0-0.02 0-0.03-0.01-0.01 0-0.01 0-0.02 0-0.01 0-0.02 0-0.04 0-0.01 0-0.01 0-0.02 0-0.02 0-0.04 0-0.05 0s-0.04 0-0.05 0c-0.01 0-0.01 0-0.02 0-0.01 0-0.02 0-0.04 0-0.01 0-0.01 0-0.02 0-0.01 0-0.02 0-0.03 0.01-0.01 0-0.01 0-0.02 0.01-0.01 0-0.02 0.01-0.03 0.01-0.01 0-0.01 0-0.02 0.01-0.01 0-0.02 0.01-0.03 0.01-0.01 0-0.01 0.01-0.02 0.01-0.01 0.01-0.03 0.01-0.04 0.02 0 0-0.01 0-0.01 0.01-0.01 0.01-0.03 0.02-0.04 0.02-0.01 0-0.01 0.01-0.02 0.01-0.01 0.01-0.02 0.01-0.03 0.02-0.01 0.01-0.01 0.01-0.02 0.02-0.01 0.01-0.02 0.01-0.02 0.02-0.01 0.01-0.02 0.01-0.02 0.02-0.01 0.01-0.01 0.01-0.02 0.02-0.01 0.01-0.02 0.01-0.02 0.02-0.01 0.01-0.01 0.01-0.02 0.02-0.01 0.01-0.02 0.02-0.02 0.02 0 0.01-0.01 0.01-0.02 0.02-0.02 0.02-0.04 0.04-0.06 0.07 0 0 0 0 0 0-0.01 0.01-0.02 0.02-0.03 0.03 0 0.01-0.01 0.01-0.01 0.01-0.01 0.01-0.02 0.02-0.03 0.04 0 0.01-0.01 0.01-0.01 0.02-0.01 0.01-0.02 0.03-0.03 0.04 0 0.01-0.01 0.01-0.01 0.01-0.01 0.01-0.02 0.03-0.03 0.04 0 0 0 0.01-0.01 0.01-0.05 0.09-0.1 0.18-0.14 0.28 0 0 0 0 0 0-0.01 0.02-0.02 0.04-0.02 0.06 0 0 0 0 0 0-0.06 0.15-0.1 0.31-0.12 0.48-0.02 0.13-0.03 0.26-0.03 0.4 0 0.17 0.02 0.33 0.05 0.49 0 0.02 0.01 0.05 0.01 0.07 0 0 0 0 0 0 0.03 0.11 0.06 0.22 0.09 0.32 0 0 0 0 0 0 0.01 0.02 0.02 0.04 0.02 0.06 0 0 0 0 0 0 0.03 0.08 0.07 0.15 0.11 0.22 0 0 0 0.01 0 0.01 0.01 0.02 0.02 0.03 0.03 0.04 0 0 0.01 0.01 0.01 0.01 0.01 0.01 0.02 0.03 0.03 0.04 0 0 0.01 0.01 0.01 0.01 0.03 0.04 0.06 0.08 0.09 0.12 0 0 0.01 0.01 0.01 0.01 0.01 0.01 0.02 0.02 0.03 0.03 0.01 0.01 0.01 0.01 0.02 0.02 0.01 0.01 0.02 0.02 0.02 0.03 0.01 0.01 0.01 0.01 0.02 0.02 0.01 0.01 0.02 0.02 0.02 0.02 0.01 0.01 0.01 0.01 0.02 0.02 0.01 0.01 0.02 0.01 0.02 0.02 0.01 0.01 0.03 0.02 0.04 0.03 0.01 0.01 0.01 0.01 0.02 0.01 0.01 0.01 0.02 0.01 0.03 0.02 0.01 0.01 0.01 0.01 0.02 0.01 0.01 0.01 0.02 0.01 0.03 0.02 0.01 0 0.01 0.01 0.02 0.01 0.01 0.01 0.02 0.01 0.03 0.02 0.01 0 0.01 0.01 0.02 0.01 0.01 0.01 0.03 0.01 0.04 0.02 0 0 0.01 0 0.01 0.01 0.02 0.01 0.03 0.01 0.05 0.02 0.01 0 0.01 0 0.02 0.01 0.01 0 0.02 0.01 0.04 0.01 0.01 0 0.01 0 0.02 0.01 0.01 0 0.02 0.01 0.03 0.01 0.01 0 0.01 0 0.02 0 0.01 0 0.02 0 0.04 0 0.01 0 0.01 0 0.02 0 0.02 0 0.04 0 0.05 0s0.04 0 0.05 0c0.01 0 0.01 0 0.02 0 0.01 0 0.02 0 0.04 0 0.01 0 0.01 0 0.02 0 0.01 0 0.02 0 0.03-0.01 0.01 0 0.01 0 0.02 0 0.01 0 0.02-0.01 0.04-0.01 0.01 0 0.01 0 0.02 0 0.02-0.01 0.03-0.01 0.05-0.02 0 0 0.01 0 0.01 0 0.01 0 0.03-0.01 0.04-0.02 0.01 0 0.01-0.01 0.02-0.01 0.01 0 0.02-0.01 0.03-0.02 0.01 0 0.01-0.01 0.02-0.01 0.01 0 0.02-0.01 0.03-0.02 0.01 0 0.01-0.01 0.02-0.01 0.01-0.01 0.02-0.01 0.03-0.02 0.01 0 0.01-0.01 0.02-0.01 0.01-0.01 0.03-0.02 0.04-0.03 0.01-0.01 0.01-0.01 0.02-0.02 0.01-0.01 0.01-0.01 0.02-0.02 0.01-0.01 0.02-0.01 0.02-0.02 0.01-0.01 0.01-0.01 0.02-0.02 0.01-0.01 0.02-0.02 0.02-0.02 0.01-0.01 0.01-0.01 0.02-0.02 0.01-0.01 0.02-0.02 0.03-0.03 0 0 0.01-0.01 0.01-0.01 0.03-0.04 0.06-0.08 0.09-0.12 0 0 0.01-0.01 0.01-0.01 0.01-0.01 0.02-0.03 0.03-0.04 0 0 0.01-0.01 0.01-0.01 0.01-0.01 0.02-0.03 0.03-0.04 0 0 0 0 0-0.01 0.04-0.07 0.07-0.14 0.11-0.22 0 0 0 0 0 0 0.01-0.02 0.02-0.04 0.02-0.06 0 0 0 0 0 0 0.04-0.1 0.07-0.21 0.09-0.32 0 0 0 0 0 0 0.04-0.17 0.06-0.36 0.06-0.55 0-0.13-0.01-0.27-0.03-0.39v0C24.36 26.7 24.32 26.54 24.26 26.39z" class="b"/><path d="M8.92 29.4v1.39 1.23c0 0.8 0.66 1.46 1.46 1.46h25.65c0.8 0 1.46-0.66 1.46-1.46v-1.23h0v-3.04l-8.16 0c-1.37 0-2.83 0-4.31 0-0.16 1.1-0.87 1.91-1.74 1.91s-1.57-0.81-1.74-1.91c-5.74 0-11.14 0-12.62 0V29.4z" class="b"/></svg>