<svg xmlns="http://www.w3.org/2000/svg" id="Laag_1" data-name="Laag 1" viewBox="0 0 109 40.1"><defs><style>.cls-1{fill:#fff;}</style></defs><path class="cls-1" d="M14.3 29.6a4.6 4.6 0 0 0-1.5-1 5 5 0 0 0-2-.4 5 5 0 0 0-2 .4A5 5 0 0 0 7 29.8a5.2 5.2 0 0 0-1 1.7 6 6 0 0 0 0 4 5.2 5.2 0 0 0 1 1.8 5 5 0 0 0 1.6 1.2 5 5 0 0 0 2 .5 7 7 0 0 0 2-.3 6.6 6.6 0 0 0 1.6-.6v-4h-3v-1.2h4.2v6a9 9 0 0 1-2.3 1 9.6 9.6 0 0 1-2.3.3 6.6 6.6 0 0 1-2.6-.4A6.2 6.2 0 0 1 5 36.2a7.2 7.2 0 0 1 0-5.2 6.2 6.2 0 0 1 3.4-3.4 6.7 6.7 0 0 1 2.6-.5 7.2 7.2 0 0 1 2.5.5 5.5 5.5 0 0 1 2 1.2zM21 39.8h-1.4V27.4h4a5 5 0 0 1 3 .8 3 3 0 0 1 1 2.5 3 3 0 0 1-.8 2.2 3.5 3.5 0 0 1-2.4 1l3.6 5.8h-1.6L23 34h-2zm0-7H23a5 5 0 0 0 1.4 0 2.7 2.7 0 0 0 1-.6 1.7 1.7 0 0 0 .4-.7 2.3 2.3 0 0 0 .2-.8 2.2 2.2 0 0 0-.2-.8 1.8 1.8 0 0 0-.5-.8 2.5 2.5 0 0 0-1-.5 5.3 5.3 0 0 0-1.3-.2H21zM32.2 38.6H39v1.2h-8V27.4h7.6v1h-6.4V33h6v1h-6zM43.5 38.6H50v1.2h-7.8V27.4H50v1h-6.5V33h6v1h-6zM62.5 38V27.3h1.3v12.4H62l-7.4-10.6v10.6h-1.3V27.4H55zM73.8 27.4h3.7a7 7 0 0 1 1.5 0 3.8 3.8 0 0 1 1.3.7 2.7 2.7 0 0 1 1 1 3 3 0 0 1 .2 1.5 2.8 2.8 0 0 1-.6 1.8 2.8 2.8 0 0 1-1.7 1 3 3 0 0 1 2 1 3 3 0 0 1 .8 2 4 4 0 0 1 0 1 3 3 0 0 1-.7 1 4 4 0 0 1-1.3 1 5.7 5.7 0 0 1-2.4.5h-3.8zm1.3 5.4h2.6a3.6 3.6 0 0 0 1 0 2.3 2.3 0 0 0 .7-.5 2 2 0 0 0 .8-1.7 2.6 2.6 0 0 0 0-.5 1.8 1.8 0 0 0-.3-.6 2.2 2.2 0 0 0-.8-.6 3.3 3.3 0 0 0-1.5-.3H75zm0 5.8h2.5a5.6 5.6 0 0 0 1.3 0 3.2 3.2 0 0 0 1-.5 2.2 2.2 0 0 0 .6-.7 2 2 0 0 0 .3-1 2 2 0 0 0-.7-1.8 3.8 3.8 0 0 0-2.3-.6H75zM85.5 39.8H84l5.4-12.4h1.2L96 39.8h-1.4l-1.4-3.3H87zm2-4.4h5.2l-2.6-6.6zM107.8 29.6a4.6 4.6 0 0 0-1.5-1 5.5 5.5 0 0 0-4.2 0 5 5 0 0 0-1.5 1.2 5.2 5.2 0 0 0-1 1.7 6 6 0 0 0 0 4 5.2 5.2 0 0 0 1 1.8 5 5 0 0 0 1.6 1.2 5 5 0 0 0 2.3.5 7 7 0 0 0 1.8-.3 6.6 6.6 0 0 0 1.7-.6v-4h-3v-1.2h4.3v6a9 9 0 0 1-2.3 1 9.6 9.6 0 0 1-2.4.3 6.6 6.6 0 0 1-2.6-.4 6.2 6.2 0 0 1-3.4-3.4 7.2 7.2 0 0 1 0-5.2 6.2 6.2 0 0 1 3.4-3.4 6.7 6.7 0 0 1 2.6-.5 7.2 7.2 0 0 1 2.6.5 5.5 5.5 0 0 1 1.8 1.2zM34.5 20.3h-1V12h-3v-.7h7v.8h-3zM40.4 11.3h1v4H46v-4h1v9h-1V16h-5v4.3h-.8zM52 19.5h4.8v.8H51v-9h5.6v.8H52v3.2h4.3v.8H52zM66 19.5h4.2v.8h-5v-9h.8zM74 20.3h-1v-9h1zM80.7 20.3h-1V12h-3v-.7h7v.8h-3zM89.4 20.3h-1V12h-3v-.7h7v.8h-3zM96.3 19.5h4v.8h-5v-9h1zM104 19.5h5v.8H103v-9h5.6v.8H104v3.2h4.4v.8H104zM4.3 23.6H109v.8H4.3zM4.8 16.2h7.8c0-.7.5-1.3 1-1.3s1 .5 1.2 1.2h7.7v-10H4.8zM20.6 5.5a7.4 7.4 0 0 0-7-5.5 7.4 7.4 0 0 0-7 5.5H8a6 6 0 0 1 5.6-4.3 6 6 0 0 1 5.7 4.3zM27.3 8L23 7.4V17l4.3-9zM0 8l4.2 9V7.4L0 8z"/><path class="cls-1" d="M14.3 16a1.2 1.2 0 0 0 0-.3h-1a1.2 1.2 0 0 0 0 .2 1.5 1.5 0 0 0-.2.2 1.6 1.6 0 0 0 0 .5 1.4 1.4 0 0 0 .2.2v.2h.8l.2-.3a1.4 1.4 0 0 0 0-.3 1.6 1.6 0 0 0 0-.5 1.5 1.5 0 0 0 0-.3z"/><path class="cls-1" d="M4.8 17.8v1.6a1 1 0 0 0 1 1h15.8a1 1 0 0 0 1-1v-2.8h-7.8c0 .8-.6 1.3-1 1.3s-1-.6-1.2-1.3H4.8z"/></svg>